<?xml version="1.0" encoding="UTF-8" standalone="no"?>
<svg
   xmlns:dc="http://purl.org/dc/elements/1.1/"
   xmlns:cc="http://creativecommons.org/ns#"
   xmlns:rdf="http://www.w3.org/1999/02/22-rdf-syntax-ns#"
   xmlns:svg="http://www.w3.org/2000/svg"
   xmlns="http://www.w3.org/2000/svg"
   xmlns:sodipodi="http://sodipodi.sourceforge.net/DTD/sodipodi-0.dtd"
   xmlns:inkscape="http://www.inkscape.org/namespaces/inkscape"
   version="1.1"
   id="svg2"
   xml:space="preserve"
   width="1137.92"
   height="640"
   viewBox="0 0 1137.92 640"
   sodipodi:docname="LogoSec4U.ai"><metadata
     id="metadata8"><rdf:RDF><cc:Work
         rdf:about=""><dc:format>image/svg+xml</dc:format><dc:type
           rdf:resource="http://purl.org/dc/dcmitype/StillImage" /></cc:Work></rdf:RDF></metadata><defs
     id="defs6"><clipPath
       clipPathUnits="userSpaceOnUse"
       id="clipPath18"><path
         d="M 0,480 H 853.44 V 0 H 0 Z"
         id="path16" /></clipPath></defs><sodipodi:namedview
     pagecolor="#ffffff"
     bordercolor="#666666"
     borderopacity="1"
     objecttolerance="10"
     gridtolerance="10"
     guidetolerance="10"
     inkscape:pageopacity="0"
     inkscape:pageshadow="2"
     inkscape:window-width="640"
     inkscape:window-height="480"
     id="namedview4" /><g
     id="g10"
     inkscape:groupmode="layer"
     inkscape:label="LogoSec4U"
     transform="matrix(1.3333333,0,0,-1.3333333,0,640)"><g
       id="g12"><g
         id="g14"
         clip-path="url(#clipPath18)"><g
           id="g20"
           transform="translate(642.717,295.0869)"><path
             d="m 0,0 -42.775,-65.05 c -0.119,-0.237 -0.207,-0.414 -0.267,-0.532 H 0 Z m 16.862,-101.524 c 0,-2.367 -0.83,-4.379 -2.485,-6.035 -1.657,-1.657 -3.639,-2.485 -5.946,-2.485 -2.308,0 -4.29,0.828 -5.946,2.485 -1.657,1.656 -2.485,3.668 -2.485,6.035 v 19.08 h -43.042 c -3.193,0 -6.153,0.828 -8.874,2.485 -2.722,1.716 -4.792,4.022 -6.213,6.922 -1.419,2.78 -1.982,5.738 -1.684,8.874 0.235,2.898 1.242,5.681 3.016,8.343 l 43.041,65.493 c 2.07,3.136 4.94,5.265 8.609,6.39 3.43,1.065 6.922,1.005 10.472,-0.178 3.489,-1.124 6.27,-3.165 8.342,-6.123 2.13,-2.899 3.195,-6.183 3.195,-9.85 v -65.494 h 8.43 c 2.366,0 4.378,-0.829 6.035,-2.485 1.656,-1.598 2.485,-3.58 2.485,-5.947 0,-2.307 -0.829,-4.29 -2.485,-5.945 -1.657,-1.657 -3.669,-2.485 -6.035,-2.485 h -8.43 z"
             style="fill:#00cdff;fill-opacity:1;fill-rule:nonzero;stroke:none"
             id="path22" /></g><g
           id="g24"
           transform="translate(687.178,303.3403)"><path
             d="m 0,0 c 0,2.307 0.828,4.289 2.485,5.946 1.656,1.656 3.639,2.485 5.947,2.485 2.365,0 4.347,-0.829 5.945,-2.485 C 16.032,4.289 16.861,2.307 16.861,0 v -61.322 c 0,-11.006 3.935,-20.443 11.804,-28.31 7.868,-7.869 17.306,-11.803 28.31,-11.803 11.062,0 20.5,3.934 28.309,11.803 7.867,7.867 11.804,17.304 11.804,28.31 V 0 c 0,2.307 0.827,4.289 2.484,5.946 1.657,1.656 3.639,2.485 5.946,2.485 2.366,0 4.378,-0.829 6.035,-2.485 1.656,-1.657 2.484,-3.639 2.484,-5.946 v -61.322 c 0,-15.679 -5.59,-29.109 -16.772,-40.291 -11.182,-11.124 -24.613,-16.684 -40.29,-16.684 -15.679,0 -29.08,5.56 -40.202,16.684 C 5.591,-90.431 0,-77.001 0,-61.322 Z"
             style="fill:#00cdff;fill-opacity:1;fill-rule:nonzero;stroke:none"
             id="path26" /></g><g
           id="g28"
           transform="translate(503.4563,291.6074)"><path
             d="m 0,0 c 17.223,0 32.678,-7.557 43.242,-19.531 l 2.125,-2.042 c 3.235,-2.332 7.644,-3.882 11.907,-3.882 10.957,0 19.84,9.05 19.84,20.214 0,4.32 -0.912,8.75 -3.177,12.034 C 55.957,27.405 29.5,40.429 0,40.429 c -54.166,0 -98.077,-43.911 -98.077,-98.077 0,-54.166 43.911,-98.078 98.077,-98.078 8.653,0 17.039,1.138 25.031,3.242 1.739,0.264 3.406,0.742 4.967,1.434 0.061,0.02 0.122,0.036 0.183,0.056 l -0.011,0.029 c 6.924,3.155 11.756,10.221 11.756,18.448 0,11.164 -8.883,20.215 -19.84,20.215 -1.641,0 -3.228,-0.225 -4.753,-0.608 -5.447,-1.707 -11.323,-2.387 -17.333,-2.387 -31.838,0 -57.648,25.811 -57.648,57.649 C -57.648,-25.81 -31.838,0 0,0 m 192.037,59.146 c -7.65,0 -13.851,-6.201 -13.851,-13.851 0,-7.649 6.201,-13.851 13.851,-13.851 7.649,0 13.85,6.202 13.85,13.851 0,7.65 -6.201,13.851 -13.85,13.851 M 63.264,-80.857 c -10.957,0 -19.84,-8.883 -19.84,-19.84 0,-10.958 8.883,-19.84 19.84,-19.84 10.957,0 19.839,8.882 19.839,19.84 0,10.957 -8.882,19.84 -19.839,19.84"
             style="fill:#ae28d6;fill-opacity:1;fill-rule:evenodd;stroke:none"
             id="path30" /></g><g
           id="g32"
           transform="translate(176.7556,235.0176)"><path
             d="m 0,0 c -6.164,4.263 -12.915,7.694 -20.255,10.304 -7.346,2.604 -14.569,4.853 -21.676,6.752 -6.874,1.893 -13.325,3.847 -19.366,5.863 -6.041,2.01 -10.838,4.62 -14.392,7.818 -3.554,3.198 -5.33,7.517 -5.33,12.97 0,5.918 1.538,10.244 4.619,12.97 3.076,2.72 6.691,4.497 10.838,5.33 4.142,0.827 7.996,1.244 11.549,1.244 8.762,0 16.524,-1.543 23.275,-4.62 6.752,-3.081 12.137,-7.229 16.169,-12.437 3.075,-2.842 6.985,-4.442 11.726,-4.797 4.736,-0.355 8.884,0.888 12.437,3.731 4.975,4.025 7.224,8.529 6.751,13.503 -0.476,4.975 -2.015,9.239 -4.619,12.793 -4.975,6.396 -11.138,11.549 -18.477,15.458 -7.346,3.908 -15.047,6.751 -23.099,8.528 -8.056,1.777 -15.757,2.665 -23.097,2.665 -11.61,0 -22.687,-2.255 -33.225,-6.752 -10.543,-4.503 -19.133,-10.899 -25.762,-19.189 -6.635,-8.295 -9.95,-18.361 -9.95,-30.204 0,-10.427 2.009,-19.073 6.041,-25.94 4.025,-6.874 9.239,-12.382 15.635,-16.524 6.396,-4.148 13.442,-7.524 21.143,-10.127 7.696,-2.61 15.219,-4.975 22.565,-7.108 7.106,-1.898 13.558,-3.908 19.366,-6.04 5.802,-2.132 10.483,-4.742 14.036,-7.818 3.554,-3.081 5.33,-7.228 5.33,-12.437 0,-6.163 -1.599,-10.721 -4.797,-13.681 -3.198,-2.965 -6.929,-4.858 -11.193,-5.686 -4.264,-0.833 -8.173,-1.365 -11.727,-1.598 -11.371,0 -20.848,1.893 -28.427,5.685 -7.585,3.787 -14.808,9.117 -21.676,15.99 -4.032,4.026 -8.174,6.219 -12.438,6.575 -4.264,0.355 -8.295,-0.655 -12.081,-3.021 -5.925,-3.792 -9.006,-8.295 -9.24,-13.503 -0.238,-5.214 0.828,-9.478 3.199,-12.793 9.239,-12.32 20.843,-20.909 34.824,-25.761 13.975,-4.853 27.95,-7.286 41.93,-7.286 11.133,0 22.032,2.194 32.692,6.575 10.66,4.38 19.544,10.838 26.651,19.366 7.107,8.528 10.661,18.833 10.661,30.915 0,10.422 -1.899,19.011 -5.686,25.763 C 11.132,-9.772 6.157,-4.265 0,0"
             style="fill:#ae28d6;fill-opacity:1;fill-rule:nonzero;stroke:none"
             id="path34" /></g><g
           id="g36"
           transform="translate(347.3196,255.2715)"><path
             d="m 0,0 h -93.107 c 0.575,2.936 1.279,5.674 2.138,8.173 2.604,7.579 6.158,13.619 10.661,18.122 4.497,4.498 9.827,7.696 15.991,9.595 6.157,1.893 12.792,2.842 19.899,2.842 7.34,0 14.27,-1.598 20.788,-4.796 6.512,-3.199 11.959,-7.524 16.345,-12.97 C -2.904,15.513 -0.478,9.355 0,2.487 Z M 38.2,19.899 C 33.342,31.271 26.768,41.275 18.478,49.926 10.183,58.571 0.649,65.384 -10.127,70.359 c -10.783,4.974 -22.209,7.462 -34.291,7.462 -15.636,0 -30.443,-4.031 -44.418,-12.082 -13.981,-8.056 -25.291,-19.605 -33.936,-34.646 -8.651,-15.047 -12.97,-33.225 -12.97,-54.546 0,-18.245 3.964,-34.591 11.904,-49.038 7.934,-14.452 19.305,-25.885 34.113,-34.29 14.803,-8.412 32.276,-12.615 52.413,-12.615 11.844,0 23.332,1.954 34.469,5.863 11.133,3.909 19.778,8.467 25.941,13.681 6.629,5.207 9.949,11.016 9.949,17.413 0,4.734 -1.721,8.882 -5.152,12.435 -3.437,3.554 -7.762,5.331 -12.97,5.331 -3.793,0 -7.818,-1.066 -12.082,-3.198 -2.61,-1.422 -5.508,-3.143 -8.706,-5.152 -3.198,-2.016 -7.407,-3.732 -12.615,-5.154 -5.213,-1.421 -12.204,-2.132 -20.965,-2.132 -9.478,0 -18.423,2.31 -26.829,6.93 -8.412,4.62 -15.28,11.371 -20.61,20.255 -3.116,5.193 -5.314,11.06 -6.609,17.59 h 117.3 c 5.685,0 10.66,1.776 14.923,5.33 4.265,3.554 6.514,8.173 6.752,13.858 0,12.792 -2.431,24.874 -7.284,36.245"
             style="fill:#ae28d6;fill-opacity:1;fill-rule:nonzero;stroke:none"
             id="path38" /></g></g></g></g></svg>
